# xmcd CD database file
#
# Track frame offsets:
#	150
#	21360
#	36260
#	91740
#	99535
#	127502
#	142827
#	157337
#	161977
#	199247
#
# Disc length: 2913 seconds
#
# Revision: 0
# Processed by: cddbd v1.4PL0 Copyright (c) Steve Scherf et al.
# Submitted via: CDex 1.50beta10
#
DISCID=800b5f0a
DTITLE=Marcus Viana - Música das Esferas
DYEAR=1900
DGENRE=New Age
TTITLE0=As Baleias e nós
TTITLE1=No Templo Invisível
TTITLE2=Quando Um Anjo Nos Toca
TTITLE3=A Borboleta Dourada
TTITLE4=Lux Aeterna
TTITLE5=Jardins de Shiva
TTITLE6=Contemplação
TTITLE7=Fragmentos
TTITLE8=Canções do Éden
TTITLE9=Adágio da Rosa
EXTD=
EXTT0=
EXTT1=
EXTT2=
EXTT3=
EXTT4=
EXTT5=
EXTT6=
EXTT7=
EXTT8=
EXTT9=
PLAYORDER=
